<?xml version="1.0" encoding="UTF-8" standalone="no"?>
<!DOCTYPE svg PUBLIC "-//W3C//DTD SVG 1.1//EN"
 "http://www.w3.org/Graphics/SVG/1.1/DTD/svg11.dtd">
<!-- Generated by graphviz version 2.40.1 (20161225.0304)
 -->
<!-- Title: graphviz Pages: 1 -->
<svg width="377pt" height="749pt"
 viewBox="0.00 0.00 376.61 749.00" xmlns="http://www.w3.org/2000/svg" xmlns:xlink="http://www.w3.org/1999/xlink">
<g id="graph0" class="graph" transform="scale(1 1) rotate(0) translate(4 745)">
<title>graphviz</title>
<polygon fill="#e8e8e8" stroke="transparent" points="-4,4 -4,-745 372.6086,-745 372.6086,4 -4,4"/>
<!-- 0 -->
<g id="node1" class="node">
<title>0</title>
<polygon fill="none" stroke="#000000" points="248.6086,-704.5 248.6086,-740.5 302.6086,-740.5 302.6086,-704.5 248.6086,-704.5"/>
<text text-anchor="middle" x="275.6086" y="-718.7" font-family="Times,serif" font-size="16.00" fill="#000000">0</text>
</g>
<!-- 0&#45;&gt;0 -->
<g id="edge1" class="edge">
<title>0&#45;&gt;0</title>
<path fill="none" stroke="#000000" d="M302.8493,-730.7419C312.6325,-730.9192 320.6086,-728.1719 320.6086,-722.5 320.6086,-719.0437 317.6468,-716.6734 313.1191,-715.3891"/>
<polygon fill="#000000" stroke="#000000" points="313.1724,-711.8739 302.8493,-714.2581 312.4061,-718.8318 313.1724,-711.8739"/>
<text text-anchor="middle" x="335.1086" y="-718.8" font-family="Times,serif" font-size="14.00" fill="#000000">空格</text>
</g>
<!-- 1 -->
<g id="node2" class="node">
<title>1</title>
<polygon fill="none" stroke="#000000" points="171.6086,-528.5 171.6086,-564.5 225.6086,-564.5 225.6086,-528.5 171.6086,-528.5"/>
<text text-anchor="middle" x="198.6086" y="-542.7" font-family="Times,serif" font-size="16.00" fill="#000000">1</text>
</g>
<!-- 0&#45;&gt;1 -->
<g id="edge2" class="edge">
<title>0&#45;&gt;1</title>
<path fill="none" stroke="#000000" d="M252.3535,-704.453C237.774,-691.7428 220.0173,-673.4032 210.6086,-653 199.2254,-628.3151 196.9264,-597.1202 197.0505,-574.8848"/>
<polygon fill="#000000" stroke="#000000" points="200.5525,-574.8324 197.2769,-564.7567 193.5542,-574.676 200.5525,-574.8324"/>
<text text-anchor="middle" x="225.1086" y="-630.8" font-family="Times,serif" font-size="14.00" fill="#000000">数字</text>
</g>
<!-- 2 -->
<g id="node3" class="node">
<title>2</title>
<polygon fill="none" stroke="#000000" points="248.6086,-616.5 248.6086,-652.5 302.6086,-652.5 302.6086,-616.5 248.6086,-616.5"/>
<text text-anchor="middle" x="275.6086" y="-630.7" font-family="Times,serif" font-size="16.00" fill="#000000">2</text>
</g>
<!-- 0&#45;&gt;2 -->
<g id="edge3" class="edge">
<title>0&#45;&gt;2</title>
<path fill="none" stroke="#000000" d="M275.6086,-704.2663C275.6086,-692.3492 275.6086,-676.5384 275.6086,-662.9817"/>
<polygon fill="#000000" stroke="#000000" points="279.1087,-662.7103 275.6086,-652.7103 272.1087,-662.7103 279.1087,-662.7103"/>
<text text-anchor="middle" x="284.1086" y="-674.8" font-family="Times,serif" font-size="14.00" fill="#000000">+/&#45;</text>
</g>
<!-- 3 -->
<g id="node4" class="node">
<title>3</title>
<polygon fill="none" stroke="#000000" points="314.6086,-528.5 314.6086,-564.5 368.6086,-564.5 368.6086,-528.5 314.6086,-528.5"/>
<text text-anchor="middle" x="341.6086" y="-542.7" font-family="Times,serif" font-size="16.00" fill="#000000">3</text>
</g>
<!-- 0&#45;&gt;3 -->
<g id="edge4" class="edge">
<title>0&#45;&gt;3</title>
<path fill="none" stroke="#000000" d="M286.4228,-704.4938C289.8045,-698.6584 293.4696,-692.1133 296.6086,-686 303.9675,-671.6681 306.0107,-668.1069 311.6086,-653 320.4541,-629.1284 320.7136,-622.5063 327.6086,-598 329.7479,-590.3964 332.0149,-582.1459 334.0873,-574.5225"/>
<polygon fill="#000000" stroke="#000000" points="337.5291,-575.2024 336.7625,-564.6353 330.7721,-573.3741 337.5291,-575.2024"/>
<text text-anchor="middle" x="344.1086" y="-630.8" font-family="Times,serif" font-size="14.00" fill="#000000">小数点</text>
</g>
<!-- 1&#45;&gt;1 -->
<g id="edge6" class="edge">
<title>1&#45;&gt;1</title>
<path fill="none" stroke="#000000" d="M225.8493,-554.7419C235.6325,-554.9192 243.6086,-552.1719 243.6086,-546.5 243.6086,-543.0437 240.6468,-540.6734 236.1191,-539.3891"/>
<polygon fill="#000000" stroke="#000000" points="236.1724,-535.8739 225.8493,-538.2581 235.4061,-542.8318 236.1724,-535.8739"/>
<text text-anchor="middle" x="258.1086" y="-542.8" font-family="Times,serif" font-size="14.00" fill="#000000">数字</text>
</g>
<!-- 7 -->
<g id="node5" class="node">
<title>7</title>
<polygon fill="none" stroke="#000000" points="132.6086,-.5 132.6086,-36.5 186.6086,-36.5 186.6086,-.5 132.6086,-.5"/>
<text text-anchor="middle" x="159.6086" y="-14.7" font-family="Times,serif" font-size="16.00" fill="#000000">7</text>
</g>
<!-- 1&#45;&gt;7 -->
<g id="edge5" class="edge">
<title>1&#45;&gt;7</title>
<path fill="none" stroke="#000000" d="M225.6311,-537.4736C257.0363,-525.0732 304.6086,-499.5194 304.6086,-458.5 304.6086,-458.5 304.6086,-458.5 304.6086,-106.5 304.6086,-56.0664 239.708,-33.7272 196.7467,-24.4645"/>
<polygon fill="#000000" stroke="#000000" points="197.3757,-21.021 186.882,-22.4811 195.9959,-27.8837 197.3757,-21.021"/>
<text text-anchor="middle" x="319.1086" y="-278.8" font-family="Times,serif" font-size="14.00" fill="#000000">空格</text>
</g>
<!-- 4 -->
<g id="node6" class="node">
<title>4</title>
<polygon fill="none" stroke="#000000" points="111.6086,-264.5 111.6086,-300.5 165.6086,-300.5 165.6086,-264.5 111.6086,-264.5"/>
<text text-anchor="middle" x="138.6086" y="-278.7" font-family="Times,serif" font-size="16.00" fill="#000000">4</text>
</g>
<!-- 1&#45;&gt;4 -->
<g id="edge7" class="edge">
<title>1&#45;&gt;4</title>
<path fill="none" stroke="#000000" d="M171.3065,-538.2282C127.2585,-523.2297 41.8898,-486.9271 6.6086,-422 -21.8976,-369.5409 54.055,-322.2181 102.283,-298.5117"/>
<polygon fill="#000000" stroke="#000000" points="104.0107,-301.5651 111.5197,-294.0908 100.9886,-295.2511 104.0107,-301.5651"/>
<text text-anchor="middle" x="16.1086" y="-410.8" font-family="Times,serif" font-size="14.00" fill="#000000">e/E</text>
</g>
<!-- 8 -->
<g id="node7" class="node">
<title>8</title>
<polygon fill="none" stroke="#000000" points="128.6086,-440.5 128.6086,-476.5 182.6086,-476.5 182.6086,-440.5 128.6086,-440.5"/>
<text text-anchor="middle" x="155.6086" y="-454.7" font-family="Times,serif" font-size="16.00" fill="#000000">8</text>
</g>
<!-- 1&#45;&gt;8 -->
<g id="edge8" class="edge">
<title>1&#45;&gt;8</title>
<path fill="none" stroke="#000000" d="M189.6989,-528.2663C183.7028,-515.9952 175.6894,-499.5957 168.9385,-485.7798"/>
<polygon fill="#000000" stroke="#000000" points="172.0418,-484.1584 164.5068,-476.7103 165.7524,-487.2317 172.0418,-484.1584"/>
<text text-anchor="middle" x="201.1086" y="-498.8" font-family="Times,serif" font-size="14.00" fill="#000000">小数点</text>
</g>
<!-- 2&#45;&gt;1 -->
<g id="edge9" class="edge">
<title>2&#45;&gt;1</title>
<path fill="none" stroke="#000000" d="M259.6541,-616.2663C248.6071,-603.6412 233.7364,-586.6461 221.4381,-572.5909"/>
<polygon fill="#000000" stroke="#000000" points="223.7617,-569.9313 214.5426,-564.7103 218.4936,-574.5409 223.7617,-569.9313"/>
<text text-anchor="middle" x="256.1086" y="-586.8" font-family="Times,serif" font-size="14.00" fill="#000000">数字</text>
</g>
<!-- 2&#45;&gt;3 -->
<g id="edge10" class="edge">
<title>2&#45;&gt;3</title>
<path fill="none" stroke="#000000" d="M275.2527,-616.4926C275.8534,-605.9505 278.0721,-592.8235 284.6086,-583 289.9149,-575.0253 297.6213,-568.4284 305.6612,-563.1405"/>
<polygon fill="#000000" stroke="#000000" points="307.6259,-566.0439 314.4185,-557.913 304.038,-560.0333 307.6259,-566.0439"/>
<text text-anchor="middle" x="306.1086" y="-586.8" font-family="Times,serif" font-size="14.00" fill="#000000">小数点</text>
</g>
<!-- 5 -->
<g id="node8" class="node">
<title>5</title>
<polygon fill="none" stroke="#000000" points="175.6086,-352.5 175.6086,-388.5 229.6086,-388.5 229.6086,-352.5 175.6086,-352.5"/>
<text text-anchor="middle" x="202.6086" y="-366.7" font-family="Times,serif" font-size="16.00" fill="#000000">5</text>
</g>
<!-- 3&#45;&gt;5 -->
<g id="edge11" class="edge">
<title>3&#45;&gt;5</title>
<path fill="none" stroke="#000000" d="M335.1102,-528.104C331.1003,-517.9226 325.4221,-505.2861 318.6086,-495 293.3261,-456.8324 256.1454,-419.2517 230.7362,-395.5336"/>
<polygon fill="#000000" stroke="#000000" points="232.9782,-392.8401 223.2547,-388.6326 228.2321,-397.9855 232.9782,-392.8401"/>
<text text-anchor="middle" x="319.1086" y="-454.8" font-family="Times,serif" font-size="14.00" fill="#000000">数字</text>
</g>
<!-- 7&#45;&gt;7 -->
<g id="edge19" class="edge">
<title>7&#45;&gt;7</title>
<path fill="none" stroke="#000000" d="M186.8493,-26.7419C196.6325,-26.9192 204.6086,-24.1719 204.6086,-18.5 204.6086,-15.0437 201.6468,-12.6734 197.1191,-11.3891"/>
<polygon fill="#000000" stroke="#000000" points="197.1724,-7.8739 186.8493,-10.2581 196.4061,-14.8318 197.1724,-7.8739"/>
<text text-anchor="middle" x="219.1086" y="-14.8" font-family="Times,serif" font-size="14.00" fill="#000000">空格</text>
</g>
<!-- 6 -->
<g id="node9" class="node">
<title>6</title>
<polygon fill="none" stroke="#000000" points="132.6086,-88.5 132.6086,-124.5 186.6086,-124.5 186.6086,-88.5 132.6086,-88.5"/>
<text text-anchor="middle" x="159.6086" y="-102.7" font-family="Times,serif" font-size="16.00" fill="#000000">6</text>
</g>
<!-- 4&#45;&gt;6 -->
<g id="edge12" class="edge">
<title>4&#45;&gt;6</title>
<path fill="none" stroke="#000000" d="M140.7768,-264.3278C144.4489,-233.5521 151.9154,-170.9759 156.2626,-134.5426"/>
<polygon fill="#000000" stroke="#000000" points="159.7426,-134.9176 157.4521,-124.5733 152.7919,-134.0882 159.7426,-134.9176"/>
<text text-anchor="middle" x="165.1086" y="-190.8" font-family="Times,serif" font-size="14.00" fill="#000000">数字</text>
</g>
<!-- 9 -->
<g id="node10" class="node">
<title>9</title>
<polygon fill="none" stroke="#000000" points="72.6086,-176.5 72.6086,-212.5 126.6086,-212.5 126.6086,-176.5 72.6086,-176.5"/>
<text text-anchor="middle" x="99.6086" y="-190.7" font-family="Times,serif" font-size="16.00" fill="#000000">9</text>
</g>
<!-- 4&#45;&gt;9 -->
<g id="edge13" class="edge">
<title>4&#45;&gt;9</title>
<path fill="none" stroke="#000000" d="M130.5277,-264.2663C125.1417,-252.1132 117.961,-235.9107 111.8754,-222.1791"/>
<polygon fill="#000000" stroke="#000000" points="114.9307,-220.4346 107.679,-212.7103 108.531,-223.2708 114.9307,-220.4346"/>
<text text-anchor="middle" x="129.1086" y="-234.8" font-family="Times,serif" font-size="14.00" fill="#000000">+/&#45;</text>
</g>
<!-- 8&#45;&gt;7 -->
<g id="edge20" class="edge">
<title>8&#45;&gt;7</title>
<path fill="none" stroke="#000000" d="M128.4117,-451.0279C94.1256,-439.758 39.6086,-414.8632 39.6086,-370.5 39.6086,-370.5 39.6086,-370.5 39.6086,-106.5 39.6086,-64.7021 87.5377,-40.5877 122.8147,-28.4998"/>
<polygon fill="#000000" stroke="#000000" points="123.9422,-31.8137 132.3787,-25.4046 121.7868,-25.1538 123.9422,-31.8137"/>
<text text-anchor="middle" x="54.1086" y="-234.8" font-family="Times,serif" font-size="14.00" fill="#000000">空格</text>
</g>
<!-- 8&#45;&gt;4 -->
<g id="edge22" class="edge">
<title>8&#45;&gt;4</title>
<path fill="none" stroke="#000000" d="M153.3518,-440.225C151.6593,-426.2181 149.3451,-406.4033 147.6086,-389 144.9607,-362.4641 142.4493,-332.157 140.7557,-310.6764"/>
<polygon fill="#000000" stroke="#000000" points="144.2373,-310.3032 139.9706,-300.6055 137.2585,-310.8473 144.2373,-310.3032"/>
<text text-anchor="middle" x="157.1086" y="-366.8" font-family="Times,serif" font-size="14.00" fill="#000000">e/E</text>
</g>
<!-- 8&#45;&gt;5 -->
<g id="edge21" class="edge">
<title>8&#45;&gt;5</title>
<path fill="none" stroke="#000000" d="M165.347,-440.2663C171.9009,-427.9952 180.6597,-411.5957 188.0387,-397.7798"/>
<polygon fill="#000000" stroke="#000000" points="191.2587,-399.18 192.8826,-388.7103 185.0842,-395.8822 191.2587,-399.18"/>
<text text-anchor="middle" x="196.1086" y="-410.8" font-family="Times,serif" font-size="14.00" fill="#000000">数字</text>
</g>
<!-- 5&#45;&gt;7 -->
<g id="edge14" class="edge">
<title>5&#45;&gt;7</title>
<path fill="none" stroke="#000000" d="M211.8539,-352.2866C234.0763,-305.8133 285.5708,-180.0093 242.6086,-88 232.7685,-66.9261 213.0468,-49.9861 195.2964,-38.1077"/>
<polygon fill="#000000" stroke="#000000" points="197.1067,-35.1111 186.7929,-32.6871 193.344,-41.0138 197.1067,-35.1111"/>
<text text-anchor="middle" x="273.1086" y="-190.8" font-family="Times,serif" font-size="14.00" fill="#000000">空格</text>
</g>
<!-- 5&#45;&gt;4 -->
<g id="edge16" class="edge">
<title>5&#45;&gt;4</title>
<path fill="none" stroke="#000000" d="M189.3477,-352.2663C180.2516,-339.7592 168.0365,-322.9634 157.8709,-308.9857"/>
<polygon fill="#000000" stroke="#000000" points="160.5648,-306.7391 151.8524,-300.7103 154.9036,-310.8563 160.5648,-306.7391"/>
<text text-anchor="middle" x="183.1086" y="-322.8" font-family="Times,serif" font-size="14.00" fill="#000000">e/E</text>
</g>
<!-- 5&#45;&gt;5 -->
<g id="edge15" class="edge">
<title>5&#45;&gt;5</title>
<path fill="none" stroke="#000000" d="M229.8493,-378.7419C239.6325,-378.9192 247.6086,-376.1719 247.6086,-370.5 247.6086,-367.0437 244.6468,-364.6734 240.1191,-363.3891"/>
<polygon fill="#000000" stroke="#000000" points="240.1724,-359.8739 229.8493,-362.2581 239.4061,-366.8318 240.1724,-359.8739"/>
<text text-anchor="middle" x="262.1086" y="-366.8" font-family="Times,serif" font-size="14.00" fill="#000000">数字</text>
</g>
<!-- 6&#45;&gt;7 -->
<g id="edge17" class="edge">
<title>6&#45;&gt;7</title>
<path fill="none" stroke="#000000" d="M159.6086,-88.2663C159.6086,-76.3492 159.6086,-60.5384 159.6086,-46.9817"/>
<polygon fill="#000000" stroke="#000000" points="163.1087,-46.7103 159.6086,-36.7103 156.1087,-46.7103 163.1087,-46.7103"/>
<text text-anchor="middle" x="174.1086" y="-58.8" font-family="Times,serif" font-size="14.00" fill="#000000">空格</text>
</g>
<!-- 6&#45;&gt;6 -->
<g id="edge18" class="edge">
<title>6&#45;&gt;6</title>
<path fill="none" stroke="#000000" d="M186.8493,-114.7419C196.6325,-114.9192 204.6086,-112.1719 204.6086,-106.5 204.6086,-103.0437 201.6468,-100.6734 197.1191,-99.3891"/>
<polygon fill="#000000" stroke="#000000" points="197.1724,-95.8739 186.8493,-98.2581 196.4061,-102.8318 197.1724,-95.8739"/>
<text text-anchor="middle" x="219.1086" y="-102.8" font-family="Times,serif" font-size="14.00" fill="#000000">数字</text>
</g>
<!-- 9&#45;&gt;7 -->
<g id="edge23" class="edge">
<title>9&#45;&gt;7</title>
<path fill="none" stroke="#000000" d="M94.3831,-176.4277C89.0506,-154.6293 83.0545,-117.2689 94.6086,-88 101.34,-70.9478 114.449,-55.62 127.1418,-43.7257"/>
<polygon fill="#000000" stroke="#000000" points="129.7973,-46.0472 134.9303,-36.7788 125.1378,-40.8232 129.7973,-46.0472"/>
<text text-anchor="middle" x="109.1086" y="-102.8" font-family="Times,serif" font-size="14.00" fill="#000000">空格</text>
</g>
<!-- 9&#45;&gt;6 -->
<g id="edge24" class="edge">
<title>9&#45;&gt;6</title>
<path fill="none" stroke="#000000" d="M104.4036,-176.3456C107.6686,-166.0024 112.6686,-153.1274 119.6086,-143 122.3221,-139.0401 125.5446,-135.2078 128.965,-131.6096"/>
<polygon fill="#000000" stroke="#000000" points="131.4498,-134.0752 136.1642,-124.587 126.5619,-129.0644 131.4498,-134.0752"/>
<text text-anchor="middle" x="134.1086" y="-146.8" font-family="Times,serif" font-size="14.00" fill="#000000">数字</text>
</g>
</g>
</svg>
